<svg xmlns="http://www.w3.org/2000/svg" width="1920" height="1260" viewBox="0 0 1920 1260">
  <defs>
    <style>
      .cls-1 {
        fill-rule: evenodd;
      }
    </style>
  </defs>
  <path id="Color_Fill_1" data-name="Color Fill 1" class="cls-1" d="M0,1L1920,2q-1.005,398.46-2,797l-169-6c29.46-58.047,8.22-125.086-58-134-26.57-3.576-61.02,25.965-76,21-1.93-12.375,7.46-47.419,0-56-18.89-19.7-111.56-18-153-18-72.16,0-153.04-10.571-223,0l-59,2c-51.13,7.728-104.41-1.616-144,14-2.68,62.308,5.78,125.455,14,180h-5l-72-3c-15.139-3.455-54.83-17.583-81-9-6.619,2.171-9.248,9.32-18,11l-91,4c-12.712-17.31-42.022-14.181-72-14-11.516.07-12.74,3.987-19,6l-26-1c-12.862,7.295-50.367,4.929-70,2l-52-1c-38.063-5.67-96.786-5.469-132,0l-57-1c-53.7-2.379-104.055-1.782-149,3l-33-4c-48.369-7.33-135.474-3.119-170,10-5.448-22.873-2-56.6-2-83V543ZM1671,692c21.94,5.876,43.68,5.073,54,22q2.505,11.5,5,23c7.59,33.011-12.28,47.41-34,62l-97-2q27-46,54-92C1657.46,699.221,1666.3,698,1671,692Z"/>
</svg>
